<?xml version="1.0" standalone="no"?>
<!DOCTYPE svg PUBLIC "-//W3C//DTD SVG 20010904//EN"
 "http://www.w3.org/TR/2001/REC-SVG-20010904/DTD/svg10.dtd">
<svg version="1.0" xmlns="http://www.w3.org/2000/svg"
 width="500.000000pt" height="249.000000pt" viewBox="0 0 500.000000 249.000000"
 preserveAspectRatio="xMidYMid meet">

<g transform="translate(0.000000,249.000000) scale(0.100000,-0.100000)"
fill="#000000" stroke="none">
<path d="M2453 2048 c-25 -40 -186 -291 -358 -558 -171 -267 -315 -491 -319
-497 -6 -10 21 -13 121 -13 l129 0 366 570 367 570 -130 0 -129 0 -47 -72z"/>
<path d="M2595 1559 c-198 -309 -361 -565 -363 -570 -2 -5 52 -9 125 -9 l128
1 360 561 c198 309 362 565 363 570 2 4 -54 8 -125 8 l-128 0 -360 -561z"/>
<path d="M4403 2105 c0 -8 4 -12 9 -9 5 3 6 10 3 15 -9 13 -12 11 -12 -6z"/>
<path d="M660 688 c-69 -36 -85 -65 -85 -158 0 -93 16 -122 85 -157 40 -21 59
-23 185 -23 77 0 156 4 174 10 112 32 155 189 79 285 -41 53 -87 65 -248 65
-132 0 -150 -2 -190 -22z m300 -81 c41 -14 64 -55 55 -96 -11 -50 -37 -64
-130 -69 -147 -8 -195 14 -195 86 0 41 27 76 65 85 40 9 171 6 205 -6z"/>
<path d="M2605 696 c-48 -18 -93 -68 -101 -114 -4 -18 -4 -58 -2 -88 4 -45 10
-61 38 -89 45 -46 81 -55 226 -55 107 0 124 2 147 20 l26 21 11 -21 c8 -15 21
-20 50 -20 l40 0 0 100 0 100 -145 0 -145 0 0 -35 0 -35 87 0 c83 0 86 -1 70
-17 -15 -15 -36 -18 -131 -18 -98 0 -117 3 -135 19 -32 29 -29 95 5 127 23 22
34 24 123 24 75 0 103 -4 124 -17 28 -19 147 -26 147 -9 0 19 -48 76 -80 95
-30 18 -55 21 -175 24 -103 1 -151 -2 -180 -12z"/>
<path d="M1210 525 l0 -175 60 0 59 0 3 118 3 117 75 -117 75 -118 50 0 50 0
70 111 c38 61 73 113 77 115 4 3 8 -47 8 -111 l0 -116 58 3 57 3 3 173 2 172
-92 0 -93 0 -69 -110 c-37 -61 -69 -110 -71 -110 -1 0 -35 50 -75 110 l-73
110 -88 0 -89 0 0 -175z"/>
<path d="M1950 525 l0 -175 245 0 245 0 0 50 0 50 -185 0 c-158 0 -185 2 -185
15 0 13 26 15 170 15 l170 0 0 45 0 45 -170 0 c-163 0 -170 1 -170 20 0 19 7
20 185 20 l185 0 0 45 0 45 -245 0 -245 0 0 -175z"/>
<path d="M3208 538 c-58 -90 -108 -169 -112 -175 -5 -10 9 -13 61 -13 66 0 69
1 86 30 l18 30 129 0 129 0 21 -30 c20 -28 26 -30 86 -30 35 0 64 3 64 6 0 4
-48 82 -107 175 l-108 168 -81 1 -82 0 -104 -162z m231 0 l23 -38 -71 0 -71 0
36 55 c41 61 35 62 83 -17z"/>
</g>
</svg>
